<!-- icon666.com - MILLIONS vector ICONS FREE --><svg version="1.1" id="Capa_1" xmlns="http://www.w3.org/2000/svg" xmlns:xlink="http://www.w3.org/1999/xlink" x="0px" y="0px" viewBox="0 0 275.582 275.582" style="enable-background:new 0 0 275.582 275.582;" xml:space="preserve"><g><path d="M262.433,30.582h-12.309v16.869c0,16.504-13.425,30-30,30c-16.586,0-30-13.506-30-30V30.582H167.79v16.869 c0,16.504-13.425,30-30,30c-16.586,0-30-13.506-30-30V30.582H85.456v16.869c0,16.504-13.425,30-30,30c-16.586,0-30-13.506-30-30 V30.582H13.149c-5.522,0-10,4.478-10,10v225c0,5.522,4.478,10,10,10h249.284c5.522,0,10-4.478,10-10v-225 C272.433,35.06,267.956,30.582,262.433,30.582z M252.433,255.582H23.149V104.248h229.284V255.582z"></path><path d="M49.097,176.456H86.6c5.523,0,10-4.477,10-10v-37.503c0-5.522-4.477-10-10-10H49.097c-5.522,0-10,4.478-10,10v37.503 C39.097,171.979,43.575,176.456,49.097,176.456z"></path><path d="M118.705,176.456h37.504c5.523,0,10-4.477,10-10v-37.503c0-5.522-4.477-10-10-10h-37.504c-5.522,0-10,4.478-10,10v37.503 C108.705,171.979,113.182,176.456,118.705,176.456z M128.705,138.953h17.504v17.503h-17.504V138.953z"></path><path d="M188.313,176.456h37.504c5.523,0,10-4.477,10-10v-37.503c0-5.522-4.477-10-10-10h-37.504c-5.523,0-10,4.478-10,10v37.503 C178.313,171.979,182.79,176.456,188.313,176.456z M198.313,138.953h17.504v17.503h-17.504V138.953z"></path><path d="M49.097,246.313H86.6c5.523,0,10-4.478,10-10v-37.503c0-5.522-4.477-10-10-10H49.097c-5.522,0-10,4.478-10,10v37.503 C39.097,241.835,43.575,246.313,49.097,246.313z M59.097,208.809H76.6v17.503H59.097V208.809z"></path><path d="M118.705,246.313h37.504c5.523,0,10-4.478,10-10v-37.503c0-5.522-4.477-10-10-10h-37.504c-5.522,0-10,4.478-10,10v37.503 C108.705,241.835,113.182,246.313,118.705,246.313z M128.705,208.809h17.504v17.503h-17.504V208.809z"></path><path d="M188.313,246.313h37.504c5.523,0,10-4.478,10-10v-37.503c0-5.522-4.477-10-10-10h-37.504c-5.523,0-10,4.478-10,10v37.503 C178.313,241.835,182.79,246.313,188.313,246.313z M198.313,208.809h17.504v17.503h-17.504V208.809z"></path><path d="M137.79,62.451c8.284,0,15-6.716,15-15V15c0-8.284-6.716-15-15-15c-8.284,0-15,6.716-15,15v32.451 C122.79,55.735,129.506,62.451,137.79,62.451z"></path><path d="M220.124,62.451c8.284,0,15-6.716,15-15V15c0-8.284-6.716-15-15-15s-15,6.716-15,15v32.451 C205.124,55.735,211.84,62.451,220.124,62.451z"></path><path d="M55.457,62.451c8.284,0,15-6.716,15-15V15c0-8.284-6.716-15-15-15c-8.284,0-15,6.716-15,15v32.451 C40.457,55.735,47.172,62.451,55.457,62.451z"></path></g></svg>