<!-- icon666.com - MILLIONS vector ICONS FREE --><svg viewBox="0 0 64 64" xmlns="http://www.w3.org/2000/svg"><g id="Crescent_Moon" data-name="Crescent Moon"><path d="m61.818 50.321a1 1 0 0 0 -1.146-.369 31.867 31.867 0 0 1 -10.484 1.756c-17.373 0-31.507-13.864-31.507-30.906a30.224 30.224 0 0 1 6.794-19.174 1 1 0 0 0 -1.106-1.573 33 33 0 0 0 -22.369 31.039c0 18.145 15.032 32.906 33.508 32.906a33.6 33.6 0 0 0 26.27-12.475 1 1 0 0 0 .04-1.204z"></path><path d="m25.049 19.094a1 1 0 0 0 .253 1.025l2.373 2.314-.56 3.266a1 1 0 0 0 1.451 1.054l2.934-1.542 2.934 1.542a1 1 0 0 0 1.451-1.053l-.56-3.266 2.375-2.315a1 1 0 0 0 -.554-1.706l-3.28-.476-1.466-2.973a1.042 1.042 0 0 0 -1.794 0l-1.467 2.973-3.28.476a1 1 0 0 0 -.81.681z"></path><path d="m36.049 32.645a1 1 0 0 0 .251 1.025l3.373 3.288-.8 4.644a1 1 0 0 0 1.451 1.054l4.17-2.193 4.17 2.193a1 1 0 0 0 1.457-1.056l-.8-4.644 3.379-3.286a1 1 0 0 0 -.554-1.706l-4.662-.677-2.084-4.225a1.041 1.041 0 0 0 -1.794 0l-2.085 4.225-4.662.677a1 1 0 0 0 -.81.681z"></path></g></svg>