<?xml version="1.0" encoding="UTF-8"?>
<svg id="_Слой_2" data-name="Слой 2" xmlns="http://www.w3.org/2000/svg" viewBox="0 0 25.13 42.16">
  <defs>
    <style>
      .cls-1 {
        fill: #000;
        stroke-width: 0px;
      }
    </style>
  </defs>
  <g id="Layer_3" data-name="Layer 3">
    <path class="cls-1" d="M.82,35.2c.09.03.2.05.3.05.18,0,.35-.05.5-.16l3.93-2.91c-.38-.24-.69-.61-.89-1.04-.89-1.92-1.54-4.13-1.94-6.6-1.61,1.82-3.45,5.11-2.43,10.04.06.28.25.51.52.62Z"/>
    <path class="cls-1" d="M24.01,35.25c.1,0,.2-.02.3-.05.27-.1.46-.34.52-.62,1.02-4.93-.83-8.23-2.44-10.05-.4,2.47-1.05,4.69-1.95,6.62-.19.42-.5.78-.88,1.03l3.93,2.91c.15.11.33.16.51.16Z"/>
    <path class="cls-1" d="M17.45,35.73c.2-.15.3-.4.3-.64-.05-.96-.34-1.8-.69-2.47h-8.99c-.35.67-.64,1.51-.69,2.47,0,.24.1.49.3.64.19.16.46.2.69.13l1.16-.35c-.16,1.63.02,4.44,2.57,6.48.13.11.3.16.47.16s.34-.05.47-.16c2.56-2.03,2.74-4.85,2.58-6.48l1.16.35c.23.07.49.03.68-.13Z"/>
    <path class="cls-1" d="M6.23,7.59c1.98.84,4.12,1.28,6.34,1.28s4.36-.44,6.34-1.28C16.57,2.56,13.24.28,13.03.14c-.28-.19-.64-.19-.93,0-.21.14-3.54,2.42-5.87,7.45Z"/>
    <circle class="cls-1" cx="12.56" cy="18.2" r="2.7"/>
    <path class="cls-1" d="M18.93,30.44c1.48-3.19,2.23-7.23,2.23-12,0-3.72-.67-6.79-1.61-9.3-2.18.92-4.54,1.41-6.98,1.41s-4.8-.49-6.99-1.41c-.95,2.51-1.62,5.58-1.62,9.3,0,4.77.75,8.81,2.23,12,.13.3.44.49.77.49h11.21c.33,0,.62-.19.76-.49ZM12.56,22.59c-2.42,0-4.39-1.97-4.39-4.39s1.97-4.39,4.39-4.39,4.39,1.97,4.39,4.39-1.97,4.39-4.39,4.39Z"/>
  </g>
</svg>