<?xml version="1.0" encoding="UTF-8"?>
<svg id="_Слой_1" data-name="Слой 1" xmlns="http://www.w3.org/2000/svg" version="1.1" viewBox="0 0 2736 1942">
  <defs>
    <style>
      .cls-1 {
        fill: #000;
        stroke-width: 0px;
      }
    </style>
  </defs>
  <rect class="cls-1" x="65" y="228" width="102" height="102" rx="9.12" ry="9.12"/>
  <rect class="cls-1" x="150" y="262" width="34" height="34" rx="14.5" ry="14.5"/>
  <rect class="cls-1" x="99" y="211" width="34" height="34" rx="14.5" ry="14.5"/>
  <rect class="cls-1" x="48" y="262" width="34" height="34" rx="14.5" ry="14.5"/>
  <rect class="cls-1" x="57" y="376" width="102" height="102" rx="9.12" ry="9.12"/>
  <rect class="cls-1" x="142" y="410" width="34" height="34" rx="14.5" ry="14.5"/>
  <rect class="cls-1" x="91" y="359" width="34" height="34" rx="14.5" ry="14.5"/>
  <rect class="cls-1" x="91" y="461" width="34" height="34" rx="14.5" ry="14.5"/>
  <rect class="cls-1" x="57" y="525" width="102" height="102" rx="9.12" ry="9.12"/>
  <rect class="cls-1" x="142" y="559" width="34" height="34" rx="14.5" ry="14.5"/>
  <rect class="cls-1" x="40" y="559" width="34" height="34" rx="14.5" ry="14.5"/>
  <rect class="cls-1" x="91" y="610" width="34" height="34" rx="14.5" ry="14.5"/>
  <rect class="cls-1" x="56" y="691" width="102" height="102" rx="9.12" ry="9.12"/>
  <rect class="cls-1" x="90" y="674" width="34" height="34" rx="14.5" ry="14.5"/>
  <rect class="cls-1" x="39" y="725" width="34" height="34" rx="14.5" ry="14.5"/>
  <rect class="cls-1" x="90" y="776" width="34" height="34" rx="14.5" ry="14.5"/>
  <rect class="cls-1" x="65" y="60" width="102" height="102" rx="9.12" ry="9.12"/>
  <rect class="cls-1" x="150" y="94" width="34" height="34" rx="14.5" ry="14.5"/>
  <rect class="cls-1" x="99" y="145" width="34" height="34" rx="14.5" ry="14.5"/>
  <rect class="cls-1" x="231" y="60" width="102" height="102" rx="9.12" ry="9.12"/>
  <rect class="cls-1" x="214" y="94" width="34" height="34" rx="14.5" ry="14.5"/>
  <rect class="cls-1" x="265" y="145" width="34" height="34" rx="14.5" ry="14.5"/>
  <rect class="cls-1" x="397" y="60" width="102" height="102" rx="9.12" ry="9.12"/>
  <rect class="cls-1" x="431" y="43" width="34" height="34" rx="14.5" ry="14.5"/>
  <rect class="cls-1" x="380" y="94" width="34" height="34" rx="14.5" ry="14.5"/>
  <rect class="cls-1" x="563" y="60" width="102" height="102" rx="9.12" ry="9.12"/>
  <rect class="cls-1" x="648" y="94" width="34" height="34" rx="14.5" ry="14.5"/>
  <rect class="cls-1" x="597" y="43" width="34" height="34" rx="14.5" ry="14.5"/>
  <rect class="cls-1" x="53" y="881" width="102" height="102" rx="9.12" ry="9.12"/>
  <rect class="cls-1" x="138" y="915" width="34" height="34" rx="14.5" ry="14.5"/>
  <rect class="cls-1" x="87" y="864" width="34" height="34" rx="14.5" ry="14.5"/>
  <rect class="cls-1" x="36" y="915" width="34" height="34" rx="14.5" ry="14.5"/>
  <rect class="cls-1" x="87" y="966" width="34" height="34" rx="14.5" ry="14.5"/>
  <rect class="cls-1" x="828" y="92" width="34" height="34" rx="14.5" ry="14.5"/>
  <path class="cls-1" d="M835.88,58h-83.76c-5.04,0-9.12,4.08-9.12,9.12v83.76c0,5.04,4.08,9.12,9.12,9.12h24.88v-2.5c0-8.01,6.49-14.5,14.5-14.5h5c8.01,0,14.5,6.49,14.5,14.5v2.5h24.88c5.04,0,9.12-4.08,9.12-9.12v-83.76c0-5.04-4.08-9.12-9.12-9.12Z"/>
  <path class="cls-1" d="M1001.88,58h-83.76c-5.04,0-9.12,4.08-9.12,9.12v24.88h2.5c8.01,0,14.5,6.49,14.5,14.5v5c0,8.01-6.49,14.5-14.5,14.5h-2.5v24.88c0,5.04,4.08,9.12,9.12,9.12h83.76c5.04,0,9.12-4.08,9.12-9.12v-83.76c0-5.04-4.08-9.12-9.12-9.12Z"/>
  <rect class="cls-1" x="943" y="143" width="34" height="34" rx="14.5" ry="14.5"/>
  <path class="cls-1" d="M1167.88,58h-24.88v2.5c0,8.01-6.49,14.5-14.5,14.5h-5c-8.01,0-14.5-6.49-14.5-14.5v-2.5h-24.88c-5.04,0-9.12,4.08-9.12,9.12v83.76c0,5.04,4.08,9.12,9.12,9.12h83.76c5.04,0,9.12-4.08,9.12-9.12v-83.76c0-5.04-4.08-9.12-9.12-9.12Z"/>
  <rect class="cls-1" x="1058" y="92" width="34" height="34" rx="14.5" ry="14.5"/>
  <path class="cls-1" d="M1340.5,126c-8.01,0-14.5-6.49-14.5-14.5v-5c0-8.01,6.49-14.5,14.5-14.5h2.5v-24.88c0-5.04-4.08-9.12-9.12-9.12h-83.76c-5.04,0-9.12,4.08-9.12,9.12v83.76c0,5.04,4.08,9.12,9.12,9.12h83.76c5.04,0,9.12-4.08,9.12-9.12v-24.88h-2.5Z"/>
  <rect class="cls-1" x="1275" y="41" width="34" height="34" rx="14.5" ry="14.5"/>
  <path class="cls-1" d="M1506.5,126c-8.01,0-14.5-6.49-14.5-14.5v-5c0-8.01,6.49-14.5,14.5-14.5h2.5v-24.88c0-5.04-4.08-9.12-9.12-9.12h-83.76c-5.04,0-9.12,4.08-9.12,9.12v83.76c0,5.04,4.08,9.12,9.12,9.12h83.76c5.04,0,9.12-4.08,9.12-9.12v-24.88h-2.5Z"/>
  <rect class="cls-1" x="1441" y="143" width="34" height="34" rx="14.5" ry="14.5"/>
  <rect class="cls-1" x="1556" y="92" width="34" height="34" rx="14.5" ry="14.5"/>
  <path class="cls-1" d="M1665.88,58h-83.76c-5.04,0-9.12,4.08-9.12,9.12v83.76c0,5.04,4.08,9.12,9.12,9.12h24.88v-2.5c0-8.01,6.49-14.5,14.5-14.5h5c8.01,0,14.5,6.49,14.5,14.5v2.5h24.88c5.04,0,9.12-4.08,9.12-9.12v-83.76c0-5.04-4.08-9.12-9.12-9.12Z"/>
  <rect class="cls-1" x="1773" y="41" width="34" height="34" rx="14.5" ry="14.5"/>
  <path class="cls-1" d="M1831.88,58h-83.76c-5.04,0-9.12,4.08-9.12,9.12v24.88h2.5c8.01,0,14.5,6.49,14.5,14.5v5c0,8.01-6.49,14.5-14.5,14.5h-2.5v24.88c0,5.04,4.08,9.12,9.12,9.12h83.76c5.04,0,9.12-4.08,9.12-9.12v-83.76c0-5.04-4.08-9.12-9.12-9.12Z"/>
  <rect class="cls-1" x="1990" y="92" width="34" height="34" rx="14.5" ry="14.5"/>
  <path class="cls-1" d="M1997.88,58h-24.88v2.5c0,8.01-6.49,14.5-14.5,14.5h-5c-8.01,0-14.5-6.49-14.5-14.5v-2.5h-24.88c-5.04,0-9.12,4.08-9.12,9.12v83.76c0,5.04,4.08,9.12,9.12,9.12h83.76c5.04,0,9.12-4.08,9.12-9.12v-83.76c0-5.04-4.08-9.12-9.12-9.12Z"/>
  <path class="cls-1" d="M2170.5,126c-8.01,0-14.5-6.49-14.5-14.5v-5c0-8.01,6.49-14.5,14.5-14.5h2.5v-24.88c0-5.04-4.08-9.12-9.12-9.12h-83.76c-5.04,0-9.12,4.08-9.12,9.12v83.76c0,5.04,4.08,9.12,9.12,9.12h24.88v-2.5c0-8.01,6.49-14.5,14.5-14.5h5c8.01,0,14.5,6.49,14.5,14.5v2.5h24.88c5.04,0,9.12-4.08,9.12-9.12v-24.88h-2.5Z"/>
  <path class="cls-1" d="M2329.88,58h-83.76c-5.04,0-9.12,4.08-9.12,9.12v24.88h2.5c8.01,0,14.5,6.49,14.5,14.5v5c0,8.01-6.49,14.5-14.5,14.5h-2.5v24.88c0,5.04,4.08,9.12,9.12,9.12h24.88v-2.5c0-8.01,6.49-14.5,14.5-14.5h5c8.01,0,14.5,6.49,14.5,14.5v2.5h24.88c5.04,0,9.12-4.08,9.12-9.12v-83.76c0-5.04-4.08-9.12-9.12-9.12Z"/>
  <path class="cls-1" d="M2495.88,58h-24.88v2.5c0,8.01-6.49,14.5-14.5,14.5h-5c-8.01,0-14.5-6.49-14.5-14.5v-2.5h-24.88c-5.04,0-9.12,4.08-9.12,9.12v24.88h2.5c8.01,0,14.5,6.49,14.5,14.5v5c0,8.01-6.49,14.5-14.5,14.5h-2.5v24.88c0,5.04,4.08,9.12,9.12,9.12h83.76c5.04,0,9.12-4.08,9.12-9.12v-83.76c0-5.04-4.08-9.12-9.12-9.12Z"/>
  <path class="cls-1" d="M2668.5,126c-8.01,0-14.5-6.49-14.5-14.5v-5c0-8.01,6.49-14.5,14.5-14.5h2.5v-24.88c0-5.04-4.08-9.12-9.12-9.12h-24.88v2.5c0,8.01-6.49,14.5-14.5,14.5h-5c-8.01,0-14.5-6.49-14.5-14.5v-2.5h-24.88c-5.04,0-9.12,4.08-9.12,9.12v83.76c0,5.04,4.08,9.12,9.12,9.12h83.76c5.04,0,9.12-4.08,9.12-9.12v-24.88h-2.5Z"/>
  <rect class="cls-1" x="316" y="262" width="34" height="34" rx="14.5" ry="14.5"/>
  <rect class="cls-1" x="265" y="211" width="34" height="34" rx="14.5" ry="14.5"/>
  <path class="cls-1" d="M323.88,228h-83.76c-5.04,0-9.12,4.08-9.12,9.12v24.88h2.5c8.01,0,14.5,6.49,14.5,14.5v5c0,8.01-6.49,14.5-14.5,14.5h-2.5v24.88c0,5.04,4.08,9.12,9.12,9.12h83.76c5.04,0,9.12-4.08,9.12-9.12v-83.76c0-5.04-4.08-9.12-9.12-9.12Z"/>
  <rect class="cls-1" x="482" y="262" width="34" height="34" rx="14.5" ry="14.5"/>
  <path class="cls-1" d="M489.88,228h-24.88v2.5c0,8.01-6.49,14.5-14.5,14.5h-5c-8.01,0-14.5-6.49-14.5-14.5v-2.5h-24.88c-5.04,0-9.12,4.08-9.12,9.12v83.76c0,5.04,4.08,9.12,9.12,9.12h83.76c5.04,0,9.12-4.08,9.12-9.12v-83.76c0-5.04-4.08-9.12-9.12-9.12Z"/>
  <rect class="cls-1" x="380" y="262" width="34" height="34" rx="14.5" ry="14.5"/>
  <path class="cls-1" d="M662.5,296c-8.01,0-14.5-6.49-14.5-14.5v-5c0-8.01,6.49-14.5,14.5-14.5h2.5v-24.88c0-5.04-4.08-9.12-9.12-9.12h-83.76c-5.04,0-9.12,4.08-9.12,9.12v83.76c0,5.04,4.08,9.12,9.12,9.12h83.76c5.04,0,9.12-4.08,9.12-9.12v-24.88h-2.5Z"/>
  <rect class="cls-1" x="597" y="211" width="34" height="34" rx="14.5" ry="14.5"/>
  <rect class="cls-1" x="546" y="262" width="34" height="34" rx="14.5" ry="14.5"/>
  <rect class="cls-1" x="831" y="265" width="34" height="34" rx="14.5" ry="14.5"/>
  <path class="cls-1" d="M838.88,231h-24.88v2.5c0,8.01-6.49,14.5-14.5,14.5h-5c-8.01,0-14.5-6.49-14.5-14.5v-2.5h-24.88c-5.04,0-9.12,4.08-9.12,9.12v24.88h2.5c8.01,0,14.5,6.49,14.5,14.5v5c0,8.01-6.49,14.5-14.5,14.5h-2.5v24.88c0,5.04,4.08,9.12,9.12,9.12h83.76c5.04,0,9.12-4.08,9.12-9.12v-83.76c0-5.04-4.08-9.12-9.12-9.12Z"/>
  <path class="cls-1" d="M1011.5,299c-8.01,0-14.5-6.49-14.5-14.5v-5c0-8.01,6.49-14.5,14.5-14.5h2.5v-24.88c0-5.04-4.08-9.12-9.12-9.12h-24.88v2.5c0,8.01-6.49,14.5-14.5,14.5h-5c-8.01,0-14.5-6.49-14.5-14.5v-2.5h-24.88c-5.04,0-9.12,4.08-9.12,9.12v83.76c0,5.04,4.08,9.12,9.12,9.12h83.76c5.04,0,9.12-4.08,9.12-9.12v-24.88h-2.5Z"/>
  <rect class="cls-1" x="895" y="265" width="34" height="34" rx="14.5" ry="14.5"/>
  <rect class="cls-1" x="1112" y="214" width="34" height="34" rx="14.5" ry="14.5"/>
  <path class="cls-1" d="M1177.5,299c-8.01,0-14.5-6.49-14.5-14.5v-5c0-8.01,6.49-14.5,14.5-14.5h2.5v-24.88c0-5.04-4.08-9.12-9.12-9.12h-83.76c-5.04,0-9.12,4.08-9.12,9.12v24.88h2.5c8.01,0,14.5,6.49,14.5,14.5v5c0,8.01-6.49,14.5-14.5,14.5h-2.5v24.88c0,5.04,4.08,9.12,9.12,9.12h83.76c5.04,0,9.12-4.08,9.12-9.12v-24.88h-2.5Z"/>
  <path class="cls-1" d="M1343.5,299c-8.01,0-14.5-6.49-14.5-14.5v-5c0-8.01,6.49-14.5,14.5-14.5h2.5v-24.88c0-5.04-4.08-9.12-9.12-9.12h-24.88v2.5c0,8.01-6.49,14.5-14.5,14.5h-5c-8.01,0-14.5-6.49-14.5-14.5v-2.5h-24.88c-5.04,0-9.12,4.08-9.12,9.12v24.88h2.5c8.01,0,14.5,6.49,14.5,14.5v5c0,8.01-6.49,14.5-14.5,14.5h-2.5v24.88c0,5.04,4.08,9.12,9.12,9.12h83.76c5.04,0,9.12-4.08,9.12-9.12v-24.88h-2.5Z"/>
  <rect class="cls-1" x="316" y="408" width="34" height="34" rx="14.5" ry="14.5"/>
  <path class="cls-1" d="M323.88,374h-24.88v2.5c0,8.01-6.49,14.5-14.5,14.5h-5c-8.01,0-14.5-6.49-14.5-14.5v-2.5h-24.88c-5.04,0-9.12,4.08-9.12,9.12v83.76c0,5.04,4.08,9.12,9.12,9.12h83.76c5.04,0,9.12-4.08,9.12-9.12v-83.76c0-5.04-4.08-9.12-9.12-9.12Z"/>
  <rect class="cls-1" x="265" y="459" width="34" height="34" rx="14.5" ry="14.5"/>
  <rect class="cls-1" x="316" y="557" width="34" height="34" rx="14.5" ry="14.5"/>
  <path class="cls-1" d="M323.88,523h-83.76c-5.04,0-9.12,4.08-9.12,9.12v24.88h2.5c8.01,0,14.5,6.49,14.5,14.5v5c0,8.01-6.49,14.5-14.5,14.5h-2.5v24.88c0,5.04,4.08,9.12,9.12,9.12h83.76c5.04,0,9.12-4.08,9.12-9.12v-83.76c0-5.04-4.08-9.12-9.12-9.12Z"/>
  <rect class="cls-1" x="265" y="608" width="34" height="34" rx="14.5" ry="14.5"/>
  <path class="cls-1" d="M322.88,689h-24.88v2.5c0,8.01-6.49,14.5-14.5,14.5h-5c-8.01,0-14.5-6.49-14.5-14.5v-2.5h-24.88c-5.04,0-9.12,4.08-9.12,9.12v83.76c0,5.04,4.08,9.12,9.12,9.12h83.76c5.04,0,9.12-4.08,9.12-9.12v-83.76c0-5.04-4.08-9.12-9.12-9.12Z"/>
  <rect class="cls-1" x="213" y="723" width="34" height="34" rx="14.5" ry="14.5"/>
  <rect class="cls-1" x="264" y="774" width="34" height="34" rx="14.5" ry="14.5"/>
  <path class="cls-1" d="M496.5,449c-8.01,0-14.5-6.49-14.5-14.5v-5c0-8.01,6.49-14.5,14.5-14.5h2.5v-24.88c0-5.04-4.08-9.12-9.12-9.12h-83.76c-5.04,0-9.12,4.08-9.12,9.12v83.76c0,5.04,4.08,9.12,9.12,9.12h83.76c5.04,0,9.12-4.08,9.12-9.12v-24.88h-2.5Z"/>
  <rect class="cls-1" x="431" y="364" width="34" height="34" rx="14.5" ry="14.5"/>
  <rect class="cls-1" x="431" y="466" width="34" height="34" rx="14.5" ry="14.5"/>
  <rect class="cls-1" x="482" y="564" width="34" height="34" rx="14.5" ry="14.5"/>
  <rect class="cls-1" x="380" y="564" width="34" height="34" rx="14.5" ry="14.5"/>
  <path class="cls-1" d="M489.88,530h-83.76c-5.04,0-9.12,4.08-9.12,9.12v83.76c0,5.04,4.08,9.12,9.12,9.12h24.88v-2.5c0-8.01,6.49-14.5,14.5-14.5h5c8.01,0,14.5,6.49,14.5,14.5v2.5h24.88c5.04,0,9.12-4.08,9.12-9.12v-83.76c0-5.04-4.08-9.12-9.12-9.12Z"/>
  <rect class="cls-1" x="430" y="679" width="34" height="34" rx="14.5" ry="14.5"/>
  <path class="cls-1" d="M488.88,696h-83.76c-5.04,0-9.12,4.08-9.12,9.12v24.88h2.5c8.01,0,14.5,6.49,14.5,14.5v5c0,8.01-6.49,14.5-14.5,14.5h-2.5v24.88c0,5.04,4.08,9.12,9.12,9.12h83.76c5.04,0,9.12-4.08,9.12-9.12v-83.76c0-5.04-4.08-9.12-9.12-9.12Z"/>
  <rect class="cls-1" x="430" y="781" width="34" height="34" rx="14.5" ry="14.5"/>
  <rect class="cls-1" x="656" y="413" width="34" height="34" rx="14.5" ry="14.5"/>
  <rect class="cls-1" x="605" y="362" width="34" height="34" rx="14.5" ry="14.5"/>
  <path class="cls-1" d="M663.88,379h-83.76c-5.04,0-9.12,4.08-9.12,9.12v83.76c0,5.04,4.08,9.12,9.12,9.12h24.88v-2.5c0-8.01,6.49-14.5,14.5-14.5h5c8.01,0,14.5,6.49,14.5,14.5v2.5h24.88c5.04,0,9.12-4.08,9.12-9.12v-83.76c0-5.04-4.08-9.12-9.12-9.12Z"/>
  <path class="cls-1" d="M670.5,596c-8.01,0-14.5-6.49-14.5-14.5v-5c0-8.01,6.49-14.5,14.5-14.5h2.5v-24.88c0-5.04-4.08-9.12-9.12-9.12h-83.76c-5.04,0-9.12,4.08-9.12,9.12v83.76c0,5.04,4.08,9.12,9.12,9.12h83.76c5.04,0,9.12-4.08,9.12-9.12v-24.88h-2.5Z"/>
  <rect class="cls-1" x="554" y="562" width="34" height="34" rx="14.5" ry="14.5"/>
  <rect class="cls-1" x="605" y="613" width="34" height="34" rx="14.5" ry="14.5"/>
  <rect class="cls-1" x="604" y="677" width="34" height="34" rx="14.5" ry="14.5"/>
  <rect class="cls-1" x="553" y="728" width="34" height="34" rx="14.5" ry="14.5"/>
  <path class="cls-1" d="M662.88,694h-83.76c-5.04,0-9.12,4.08-9.12,9.12v83.76c0,5.04,4.08,9.12,9.12,9.12h24.88v-2.5c0-8.01,6.49-14.5,14.5-14.5h5c8.01,0,14.5,6.49,14.5,14.5v2.5h24.88c5.04,0,9.12-4.08,9.12-9.12v-83.76c0-5.04-4.08-9.12-9.12-9.12Z"/>
  <path class="cls-1" d="M845.5,451c-8.01,0-14.5-6.49-14.5-14.5v-5c0-8.01,6.49-14.5,14.5-14.5h2.5v-24.88c0-5.04-4.08-9.12-9.12-9.12h-24.88v2.5c0,8.01-6.49,14.5-14.5,14.5h-5c-8.01,0-14.5-6.49-14.5-14.5v-2.5h-24.88c-5.04,0-9.12,4.08-9.12,9.12v83.76c0,5.04,4.08,9.12,9.12,9.12h83.76c5.04,0,9.12-4.08,9.12-9.12v-24.88h-2.5Z"/>
  <rect class="cls-1" x="780" y="468" width="34" height="34" rx="14.5" ry="14.5"/>
  <rect class="cls-1" x="831" y="566" width="34" height="34" rx="14.5" ry="14.5"/>
  <path class="cls-1" d="M838.88,532h-83.76c-5.04,0-9.12,4.08-9.12,9.12v24.88h2.5c8.01,0,14.5,6.49,14.5,14.5v5c0,8.01-6.49,14.5-14.5,14.5h-2.5v24.88c0,5.04,4.08,9.12,9.12,9.12h24.88v-2.5c0-8.01,6.49-14.5,14.5-14.5h5c8.01,0,14.5,6.49,14.5,14.5v2.5h24.88c5.04,0,9.12-4.08,9.12-9.12v-83.76c0-5.04-4.08-9.12-9.12-9.12Z"/>
  <rect class="cls-1" x="779" y="681" width="34" height="34" rx="14.5" ry="14.5"/>
  <path class="cls-1" d="M837.88,698h-83.76c-5.04,0-9.12,4.08-9.12,9.12v24.88h2.5c8.01,0,14.5,6.49,14.5,14.5v5c0,8.01-6.49,14.5-14.5,14.5h-2.5v24.88c0,5.04,4.08,9.12,9.12,9.12h24.88v-2.5c0-8.01,6.49-14.5,14.5-14.5h5c8.01,0,14.5,6.49,14.5,14.5v2.5h24.88c5.04,0,9.12-4.08,9.12-9.12v-83.76c0-5.04-4.08-9.12-9.12-9.12Z"/>
  <rect class="cls-1" x="954" y="364" width="34" height="34" rx="14.5" ry="14.5"/>
  <path class="cls-1" d="M1019.5,449c-8.01,0-14.5-6.49-14.5-14.5v-5c0-8.01,6.49-14.5,14.5-14.5h2.5v-24.88c0-5.04-4.08-9.12-9.12-9.12h-83.76c-5.04,0-9.12,4.08-9.12,9.12v83.76c0,5.04,4.08,9.12,9.12,9.12h24.88v-2.5c0-8.01,6.49-14.5,14.5-14.5h5c8.01,0,14.5,6.49,14.5,14.5v2.5h24.88c5.04,0,9.12-4.08,9.12-9.12v-24.88h-2.5Z"/>
  <rect class="cls-1" x="903" y="564" width="34" height="34" rx="14.5" ry="14.5"/>
  <path class="cls-1" d="M1019.5,598c-8.01,0-14.5-6.49-14.5-14.5v-5c0-8.01,6.49-14.5,14.5-14.5h2.5v-24.88c0-5.04-4.08-9.12-9.12-9.12h-83.76c-5.04,0-9.12,4.08-9.12,9.12v83.76c0,5.04,4.08,9.12,9.12,9.12h24.88v-2.5c0-8.01,6.49-14.5,14.5-14.5h5c8.01,0,14.5,6.49,14.5,14.5v2.5h24.88c5.04,0,9.12-4.08,9.12-9.12v-24.88h-2.5Z"/>
  <path class="cls-1" d="M1011.88,696h-24.88v2.5c0,8.01-6.49,14.5-14.5,14.5h-5c-8.01,0-14.5-6.49-14.5-14.5v-2.5h-24.88c-5.04,0-9.12,4.08-9.12,9.12v24.88h2.5c8.01,0,14.5,6.49,14.5,14.5v5c0,8.01-6.49,14.5-14.5,14.5h-2.5v24.88c0,5.04,4.08,9.12,9.12,9.12h83.76c5.04,0,9.12-4.08,9.12-9.12v-83.76c0-5.04-4.08-9.12-9.12-9.12Z"/>
  <rect class="cls-1" x="953" y="781" width="34" height="34" rx="14.5" ry="14.5"/>
  <rect class="cls-1" x="1171" y="422" width="34" height="34" rx="14.5" ry="14.5"/>
  <path class="cls-1" d="M1178.88,388h-24.88v2.5c0,8.01-6.49,14.5-14.5,14.5h-5c-8.01,0-14.5-6.49-14.5-14.5v-2.5h-24.88c-5.04,0-9.12,4.08-9.12,9.12v83.76c0,5.04,4.08,9.12,9.12,9.12h24.88v-2.5c0-8.01,6.49-14.5,14.5-14.5h5c8.01,0,14.5,6.49,14.5,14.5v2.5h24.88c5.04,0,9.12-4.08,9.12-9.12v-83.76c0-5.04-4.08-9.12-9.12-9.12Z"/>
  <path class="cls-1" d="M1185.5,605c-8.01,0-14.5-6.49-14.5-14.5v-5c0-8.01,6.49-14.5,14.5-14.5h2.5v-24.88c0-5.04-4.08-9.12-9.12-9.12h-83.76c-5.04,0-9.12,4.08-9.12,9.12v24.88h2.5c8.01,0,14.5,6.49,14.5,14.5v5c0,8.01-6.49,14.5-14.5,14.5h-2.5v24.88c0,5.04,4.08,9.12,9.12,9.12h83.76c5.04,0,9.12-4.08,9.12-9.12v-24.88h-2.5Z"/>
  <rect class="cls-1" x="1120" y="622" width="34" height="34" rx="14.5" ry="14.5"/>
  <rect class="cls-1" x="1068" y="737" width="34" height="34" rx="14.5" ry="14.5"/>
  <path class="cls-1" d="M1177.88,703h-24.88v2.5c0,8.01-6.49,14.5-14.5,14.5h-5c-8.01,0-14.5-6.49-14.5-14.5v-2.5h-24.88c-5.04,0-9.12,4.08-9.12,9.12v83.76c0,5.04,4.08,9.12,9.12,9.12h24.88v-2.5c0-8.01,6.49-14.5,14.5-14.5h5c8.01,0,14.5,6.49,14.5,14.5v2.5h24.88c5.04,0,9.12-4.08,9.12-9.12v-83.76c0-5.04-4.08-9.12-9.12-9.12Z"/>
  <path class="cls-1" d="M1359.5,454c-8.01,0-14.5-6.49-14.5-14.5v-5c0-8.01,6.49-14.5,14.5-14.5h2.5v-24.88c0-5.04-4.08-9.12-9.12-9.12h-24.88v2.5c0,8.01-6.49,14.5-14.5,14.5h-5c-8.01,0-14.5-6.49-14.5-14.5v-2.5h-24.88c-5.04,0-9.12,4.08-9.12,9.12v83.76c0,5.04,4.08,9.12,9.12,9.12h24.88v-2.5c0-8.01,6.49-14.5,14.5-14.5h5c8.01,0,14.5,6.49,14.5,14.5v2.5h24.88c5.04,0,9.12-4.08,9.12-9.12v-24.88h-2.5Z"/>
  <path class="cls-1" d="M1359.5,603c-8.01,0-14.5-6.49-14.5-14.5v-5c0-8.01,6.49-14.5,14.5-14.5h2.5v-24.88c0-5.04-4.08-9.12-9.12-9.12h-83.76c-5.04,0-9.12,4.08-9.12,9.12v24.88h2.5c8.01,0,14.5,6.49,14.5,14.5v5c0,8.01-6.49,14.5-14.5,14.5h-2.5v24.88c0,5.04,4.08,9.12,9.12,9.12h24.88v-2.5c0-8.01,6.49-14.5,14.5-14.5h5c8.01,0,14.5,6.49,14.5,14.5v2.5h24.88c5.04,0,9.12-4.08,9.12-9.12v-24.88h-2.5Z"/>
  <path class="cls-1" d="M1351.88,701h-24.88v2.5c0,8.01-6.49,14.5-14.5,14.5h-5c-8.01,0-14.5-6.49-14.5-14.5v-2.5h-24.88c-5.04,0-9.12,4.08-9.12,9.12v24.88h2.5c8.01,0,14.5,6.49,14.5,14.5v5c0,8.01-6.49,14.5-14.5,14.5h-2.5v24.88c0,5.04,4.08,9.12,9.12,9.12h24.88v-2.5c0-8.01,6.49-14.5,14.5-14.5h5c8.01,0,14.5,6.49,14.5,14.5v2.5h24.88c5.04,0,9.12-4.08,9.12-9.12v-83.76c0-5.04-4.08-9.12-9.12-9.12Z"/>
  <rect class="cls-1" x="315" y="915" width="34" height="34" rx="14.5" ry="14.5"/>
  <path class="cls-1" d="M322.88,881h-24.88v2.5c0,8.01-6.49,14.5-14.5,14.5h-5c-8.01,0-14.5-6.49-14.5-14.5v-2.5h-24.88c-5.04,0-9.12,4.08-9.12,9.12v83.76c0,5.04,4.08,9.12,9.12,9.12h83.76c5.04,0,9.12-4.08,9.12-9.12v-83.76c0-5.04-4.08-9.12-9.12-9.12Z"/>
  <rect class="cls-1" x="213" y="915" width="34" height="34" rx="14.5" ry="14.5"/>
  <rect class="cls-1" x="264" y="966" width="34" height="34" rx="14.5" ry="14.5"/>
  <path class="cls-1" d="M495.5,947c-8.01,0-14.5-6.49-14.5-14.5v-5c0-8.01,6.49-14.5,14.5-14.5h2.5v-24.88c0-5.04-4.08-9.12-9.12-9.12h-83.76c-5.04,0-9.12,4.08-9.12,9.12v83.76c0,5.04,4.08,9.12,9.12,9.12h83.76c5.04,0,9.12-4.08,9.12-9.12v-24.88h-2.5Z"/>
  <rect class="cls-1" x="430" y="862" width="34" height="34" rx="14.5" ry="14.5"/>
  <rect class="cls-1" x="379" y="913" width="34" height="34" rx="14.5" ry="14.5"/>
  <rect class="cls-1" x="430" y="964" width="34" height="34" rx="14.5" ry="14.5"/>
  <rect class="cls-1" x="657" y="919" width="34" height="34" rx="14.5" ry="14.5"/>
  <rect class="cls-1" x="606" y="868" width="34" height="34" rx="14.5" ry="14.5"/>
  <rect class="cls-1" x="555" y="919" width="34" height="34" rx="14.5" ry="14.5"/>
  <path class="cls-1" d="M664.88,885h-83.76c-5.04,0-9.12,4.08-9.12,9.12v83.76c0,5.04,4.08,9.12,9.12,9.12h24.88v-2.5c0-8.01,6.49-14.5,14.5-14.5h5c8.01,0,14.5,6.49,14.5,14.5v2.5h24.88c5.04,0,9.12-4.08,9.12-9.12v-83.76c0-5.04-4.08-9.12-9.12-9.12Z"/>
  <rect class="cls-1" x="834" y="919" width="34" height="34" rx="14.5" ry="14.5"/>
  <rect class="cls-1" x="783" y="868" width="34" height="34" rx="14.5" ry="14.5"/>
  <path class="cls-1" d="M841.88,885h-83.76c-5.04,0-9.12,4.08-9.12,9.12v24.88h2.5c8.01,0,14.5,6.49,14.5,14.5v5c0,8.01-6.49,14.5-14.5,14.5h-2.5v24.88c0,5.04,4.08,9.12,9.12,9.12h83.76c5.04,0,9.12-4.08,9.12-9.12v-83.76c0-5.04-4.08-9.12-9.12-9.12Z"/>
  <rect class="cls-1" x="783" y="970" width="34" height="34" rx="14.5" ry="14.5"/>
  <path class="cls-1" d="M1014.5,951c-8.01,0-14.5-6.49-14.5-14.5v-5c0-8.01,6.49-14.5,14.5-14.5h2.5v-24.88c0-5.04-4.08-9.12-9.12-9.12h-24.88v2.5c0,8.01-6.49,14.5-14.5,14.5h-5c-8.01,0-14.5-6.49-14.5-14.5v-2.5h-24.88c-5.04,0-9.12,4.08-9.12,9.12v83.76c0,5.04,4.08,9.12,9.12,9.12h83.76c5.04,0,9.12-4.08,9.12-9.12v-24.88h-2.5Z"/>
  <rect class="cls-1" x="898" y="917" width="34" height="34" rx="14.5" ry="14.5"/>
  <rect class="cls-1" x="949" y="968" width="34" height="34" rx="14.5" ry="14.5"/>
  <rect class="cls-1" x="1120" y="861" width="34" height="34" rx="14.5" ry="14.5"/>
  <rect class="cls-1" x="1069" y="912" width="34" height="34" rx="14.5" ry="14.5"/>
  <path class="cls-1" d="M1185.5,946c-8.01,0-14.5-6.49-14.5-14.5v-5c0-8.01,6.49-14.5,14.5-14.5h2.5v-24.88c0-5.04-4.08-9.12-9.12-9.12h-83.76c-5.04,0-9.12,4.08-9.12,9.12v83.76c0,5.04,4.08,9.12,9.12,9.12h24.88v-2.5c0-8.01,6.49-14.5,14.5-14.5h5c8.01,0,14.5,6.49,14.5,14.5v2.5h24.88c5.04,0,9.12-4.08,9.12-9.12v-24.88h-2.5Z"/>
  <rect class="cls-1" x="1348" y="912" width="34" height="34" rx="14.5" ry="14.5"/>
  <rect class="cls-1" x="1297" y="861" width="34" height="34" rx="14.5" ry="14.5"/>
  <path class="cls-1" d="M1355.88,878h-83.76c-5.04,0-9.12,4.08-9.12,9.12v24.88h2.5c8.01,0,14.5,6.49,14.5,14.5v5c0,8.01-6.49,14.5-14.5,14.5h-2.5v24.88c0,5.04,4.08,9.12,9.12,9.12h24.88v-2.5c0-8.01,6.49-14.5,14.5-14.5h5c8.01,0,14.5,6.49,14.5,14.5v2.5h24.88c5.04,0,9.12-4.08,9.12-9.12v-83.76c0-5.04-4.08-9.12-9.12-9.12Z"/>
  <rect class="cls-1" x="1514" y="910" width="34" height="34" rx="14.5" ry="14.5"/>
  <path class="cls-1" d="M1521.88,876h-24.88v2.5c0,8.01-6.49,14.5-14.5,14.5h-5c-8.01,0-14.5-6.49-14.5-14.5v-2.5h-24.88c-5.04,0-9.12,4.08-9.12,9.12v24.88h2.5c8.01,0,14.5,6.49,14.5,14.5v5c0,8.01-6.49,14.5-14.5,14.5h-2.5v24.88c0,5.04,4.08,9.12,9.12,9.12h83.76c5.04,0,9.12-4.08,9.12-9.12v-83.76c0-5.04-4.08-9.12-9.12-9.12Z"/>
  <rect class="cls-1" x="1463" y="961" width="34" height="34" rx="14.5" ry="14.5"/>
  <rect class="cls-1" x="1690" y="916" width="34" height="34" rx="14.5" ry="14.5"/>
  <rect class="cls-1" x="1588" y="916" width="34" height="34" rx="14.5" ry="14.5"/>
  <path class="cls-1" d="M1697.88,882h-24.88v2.5c0,8.01-6.49,14.5-14.5,14.5h-5c-8.01,0-14.5-6.49-14.5-14.5v-2.5h-24.88c-5.04,0-9.12,4.08-9.12,9.12v83.76c0,5.04,4.08,9.12,9.12,9.12h24.88v-2.5c0-8.01,6.49-14.5,14.5-14.5h5c8.01,0,14.5,6.49,14.5,14.5v2.5h24.88c5.04,0,9.12-4.08,9.12-9.12v-83.76c0-5.04-4.08-9.12-9.12-9.12Z"/>
  <rect class="cls-1" x="1816" y="865" width="34" height="34" rx="14.5" ry="14.5"/>
  <path class="cls-1" d="M1881.5,950c-8.01,0-14.5-6.49-14.5-14.5v-5c0-8.01,6.49-14.5,14.5-14.5h2.5v-24.88c0-5.04-4.08-9.12-9.12-9.12h-83.76c-5.04,0-9.12,4.08-9.12,9.12v24.88h2.5c8.01,0,14.5,6.49,14.5,14.5v5c0,8.01-6.49,14.5-14.5,14.5h-2.5v24.88c0,5.04,4.08,9.12,9.12,9.12h83.76c5.04,0,9.12-4.08,9.12-9.12v-24.88h-2.5Z"/>
  <rect class="cls-1" x="1816" y="967" width="34" height="34" rx="14.5" ry="14.5"/>
  <path class="cls-1" d="M2047.5,948c-8.01,0-14.5-6.49-14.5-14.5v-5c0-8.01,6.49-14.5,14.5-14.5h2.5v-24.88c0-5.04-4.08-9.12-9.12-9.12h-24.88v2.5c0,8.01-6.49,14.5-14.5,14.5h-5c-8.01,0-14.5-6.49-14.5-14.5v-2.5h-24.88c-5.04,0-9.12,4.08-9.12,9.12v24.88h2.5c8.01,0,14.5,6.49,14.5,14.5v5c0,8.01-6.49,14.5-14.5,14.5h-2.5v24.88c0,5.04,4.08,9.12,9.12,9.12h83.76c5.04,0,9.12-4.08,9.12-9.12v-24.88h-2.5Z"/>
  <rect class="cls-1" x="1982" y="965" width="34" height="34" rx="14.5" ry="14.5"/>
  <rect class="cls-1" x="2092" y="912" width="34" height="34" rx="14.5" ry="14.5"/>
  <path class="cls-1" d="M2208.5,946c-8.01,0-14.5-6.49-14.5-14.5v-5c0-8.01,6.49-14.5,14.5-14.5h2.5v-24.88c0-5.04-4.08-9.12-9.12-9.12h-24.88v2.5c0,8.01-6.49,14.5-14.5,14.5h-5c-8.01,0-14.5-6.49-14.5-14.5v-2.5h-24.88c-5.04,0-9.12,4.08-9.12,9.12v83.76c0,5.04,4.08,9.12,9.12,9.12h24.88v-2.5c0-8.01,6.49-14.5,14.5-14.5h5c8.01,0,14.5,6.49,14.5,14.5v2.5h24.88c5.04,0,9.12-4.08,9.12-9.12v-24.88h-2.5Z"/>
  <rect class="cls-1" x="2305" y="862" width="34" height="34" rx="14.5" ry="14.5"/>
  <path class="cls-1" d="M2370.5,947c-8.01,0-14.5-6.49-14.5-14.5v-5c0-8.01,6.49-14.5,14.5-14.5h2.5v-24.88c0-5.04-4.08-9.12-9.12-9.12h-83.76c-5.04,0-9.12,4.08-9.12,9.12v24.88h2.5c8.01,0,14.5,6.49,14.5,14.5v5c0,8.01-6.49,14.5-14.5,14.5h-2.5v24.88c0,5.04,4.08,9.12,9.12,9.12h24.88v-2.5c0-8.01,6.49-14.5,14.5-14.5h5c8.01,0,14.5,6.49,14.5,14.5v2.5h24.88c5.04,0,9.12-4.08,9.12-9.12v-24.88h-2.5Z"/>
  <rect class="cls-1" x="2517" y="911" width="34" height="34" rx="14.5" ry="14.5"/>
  <path class="cls-1" d="M2524.88,877h-24.88v2.5c0,8.01-6.49,14.5-14.5,14.5h-5c-8.01,0-14.5-6.49-14.5-14.5v-2.5h-24.88c-5.04,0-9.12,4.08-9.12,9.12v24.88h2.5c8.01,0,14.5,6.49,14.5,14.5v5c0,8.01-6.49,14.5-14.5,14.5h-2.5v24.88c0,5.04,4.08,9.12,9.12,9.12h24.88v-2.5c0-8.01,6.49-14.5,14.5-14.5h5c8.01,0,14.5,6.49,14.5,14.5v2.5h24.88c5.04,0,9.12-4.08,9.12-9.12v-83.76c0-5.04-4.08-9.12-9.12-9.12Z"/>
  <path class="cls-1" d="M2692.5,944c-8.01,0-14.5-6.49-14.5-14.5v-5c0-8.01,6.49-14.5,14.5-14.5h2.5v-24.88c0-5.04-4.08-9.12-9.12-9.12h-24.88v2.5c0,8.01-6.49,14.5-14.5,14.5h-5c-8.01,0-14.5-6.49-14.5-14.5v-2.5h-24.88c-5.04,0-9.12,4.08-9.12,9.12v24.88h2.5c8.01,0,14.5,6.49,14.5,14.5v5c0,8.01-6.49,14.5-14.5,14.5h-2.5v24.88c0,5.04,4.08,9.12,9.12,9.12h24.88v-2.5c0-8.01,6.49-14.5,14.5-14.5h5c8.01,0,14.5,6.49,14.5,14.5v2.5h24.88c5.04,0,9.12-4.08,9.12-9.12v-24.88h-2.5Z"/>
  <path class="cls-1" d="M1838.5,282c-8.01,0-14.5-6.49-14.5-14.5v-5c0-8.01,6.49-14.5,14.5-14.5h2.5v-24.88c0-5.04-4.08-9.12-9.12-9.12h-83.76c-5.04,0-9.12,4.08-9.12,9.12v24.88h2.5c8.01,0,14.5,6.49,14.5,14.5v5c0,8.01-6.49,14.5-14.5,14.5h-2.5v24.88c0,5.04,4.08,9.12,9.12,9.12h83.76c5.04,0,9.12-4.08,9.12-9.12v-24.88h-2.5Z"/>
  <path class="cls-1" d="M1997.88,214h-24.88v2.5c0,8.01-6.49,14.5-14.5,14.5h-5c-8.01,0-14.5-6.49-14.5-14.5v-2.5h-24.88c-5.04,0-9.12,4.08-9.12,9.12v83.76c0,5.04,4.08,9.12,9.12,9.12h24.88v-2.5c0-8.01,6.49-14.5,14.5-14.5h5c8.01,0,14.5,6.49,14.5,14.5v2.5h24.88c5.04,0,9.12-4.08,9.12-9.12v-83.76c0-5.04-4.08-9.12-9.12-9.12Z"/>
  <rect class="cls-1" x="1741" y="379" width="102" height="102" rx="9.12" ry="9.12"/>
  <rect class="cls-1" x="1826" y="413" width="34" height="34" rx="14.5" ry="14.5"/>
  <rect class="cls-1" x="1905" y="379" width="102" height="102" rx="9.12" ry="9.12"/>
  <rect class="cls-1" x="1939" y="362" width="34" height="34" rx="14.5" ry="14.5"/>
  <rect class="cls-1" x="1743" y="547" width="102" height="102" rx="9.12" ry="9.12"/>
  <rect class="cls-1" x="1726" y="581" width="34" height="34" rx="14.5" ry="14.5"/>
  <rect class="cls-1" x="1907" y="547" width="102" height="102" rx="9.12" ry="9.12"/>
  <rect class="cls-1" x="1941" y="632" width="34" height="34" rx="14.5" ry="14.5"/>
  <path class="cls-1" d="M2221.5,444c-8.01,0-14.5-6.49-14.5-14.5v-5c0-8.01,6.49-14.5,14.5-14.5h2.5v-24.88c0-5.04-4.08-9.12-9.12-9.12h-83.76c-5.04,0-9.12,4.08-9.12,9.12v83.76c0,5.04,4.08,9.12,9.12,9.12h83.76c5.04,0,9.12-4.08,9.12-9.12v-24.88h-2.5Z"/>
  <path class="cls-1" d="M2378.88,376h-24.88v2.5c0,8.01-6.49,14.5-14.5,14.5h-5c-8.01,0-14.5-6.49-14.5-14.5v-2.5h-24.88c-5.04,0-9.12,4.08-9.12,9.12v83.76c0,5.04,4.08,9.12,9.12,9.12h83.76c5.04,0,9.12-4.08,9.12-9.12v-83.76c0-5.04-4.08-9.12-9.12-9.12Z"/>
  <path class="cls-1" d="M2216.88,544h-83.76c-5.04,0-9.12,4.08-9.12,9.12v24.88h2.5c8.01,0,14.5,6.49,14.5,14.5v5c0,8.01-6.49,14.5-14.5,14.5h-2.5v24.88c0,5.04,4.08,9.12,9.12,9.12h83.76c5.04,0,9.12-4.08,9.12-9.12v-83.76c0-5.04-4.08-9.12-9.12-9.12Z"/>
  <path class="cls-1" d="M2380.88,544h-83.76c-5.04,0-9.12,4.08-9.12,9.12v83.76c0,5.04,4.08,9.12,9.12,9.12h24.88v-2.5c0-8.01,6.49-14.5,14.5-14.5h5c8.01,0,14.5,6.49,14.5,14.5v2.5h24.88c5.04,0,9.12-4.08,9.12-9.12v-83.76c0-5.04-4.08-9.12-9.12-9.12Z"/>
  <rect class="cls-1" x="2500" y="373" width="102" height="102" rx="9.12" ry="9.12"/>
</svg>