<?xml version="1.0" encoding="UTF-8"?>
<svg id="_Слой_2" data-name="Слой 2" xmlns="http://www.w3.org/2000/svg" viewBox="0 0 102 119">
  <defs>
    <style>
      .cls-1 {
        fill: #000;
        stroke-width: 0px;
      }
    </style>
  </defs>
  <g id="_Слой_1-2" data-name="Слой 1">
    <rect class="cls-1" x="34" y="0" width="34" height="34" rx="14.5" ry="14.5"/>
    <path class="cls-1" d="M99.5,85c-8.01,0-14.5-6.49-14.5-14.5v-5c0-8.01,6.49-14.5,14.5-14.5h2.5v-24.88c0-5.04-4.08-9.12-9.12-9.12H9.12c-5.04,0-9.12,4.08-9.12,9.12v24.88h2.5c8.01,0,14.5,6.49,14.5,14.5v5c0,8.01-6.49,14.5-14.5,14.5H0v24.88c0,5.04,4.08,9.12,9.12,9.12h83.76c5.04,0,9.12-4.08,9.12-9.12v-24.88h-2.5Z"/>
  </g>
</svg>