<?xml version="1.0" encoding="UTF-8"?>
<svg id="_Слой_2" data-name="Слой 2" xmlns="http://www.w3.org/2000/svg" viewBox="0 0 119 102">
  <defs>
    <style>
      .cls-1 {
        fill: #000;
        stroke-width: 0px;
      }
    </style>
  </defs>
  <g id="_Слой_1-2" data-name="Слой 1">
    <rect class="cls-1" x="0" y="34" width="34" height="34" rx="14.5" ry="14.5"/>
    <path class="cls-1" d="M109.88,0h-24.88v2.5c0,8.01-6.49,14.5-14.5,14.5h-5c-8.01,0-14.5-6.49-14.5-14.5V0h-24.88c-5.04,0-9.12,4.08-9.12,9.12v83.76c0,5.04,4.08,9.12,9.12,9.12h24.88v-2.5c0-8.01,6.49-14.5,14.5-14.5h5c8.01,0,14.5,6.49,14.5,14.5v2.5h24.88c5.04,0,9.12-4.08,9.12-9.12V9.12c0-5.04-4.08-9.12-9.12-9.12Z"/>
  </g>
</svg>